<?xml version="1.0" standalone="no"?> <!DOCTYPE svg PUBLIC "-//W3C//DTD SVG 1.0//EN" "http://www.w3.org/TR/2001/REC-SVG-20010904/DTD/svg10.dtd" > <svg xmlns="http://www.w3.org/2000/svg" width="100%" height="100%">
<defs >
<font id="inconsolata-dz" horiz-adv-x="600" ><font-face
    font-family="Inconsolata-dz"
    units-per-em="1000"
    panose-1="2 11 6 9 3 0 3 0 0 0"
    ascent="967"
    descent="-206"
    alphabetic="0" />
<missing-glyph />
<glyph unicode=" " glyph-name="space" />
<glyph unicode="!" glyph-name="exclam" d="M356 84T356 56T336 7T288 -13T239 7T219 55T239 104T287 124T336 104ZM289 774Q307 774 322 762T344 724Q349 707 349 677Q349 652 344 605T338 545L317 225H259L242 545Q240 584 236 626T231 687Q231 718 238 737Q254
774 289 774Z" />
<glyph unicode="&quot;" glyph-name="quotedbl" d="M456 706V596L458 492H377Q375 519 375 542T376 592Q379 596 377 619T374 648V706Q374 737 388 754T420 772Q456 772 456 706ZM254 706V596L256 492H175Q173 519 173 542T174 592Q177 596 175 619T172 648V706Q172
737 186 754T218 772Q254 772 254 706Z" />
<glyph unicode="#" glyph-name="numbersign" d="M211 723L281 726L257 527L385 529L407 717L479 720L456 530L561 531L555 475L449 474L425 279L540 281L534 227L419 225L393 16L323 12L348 224L220 222L195 16L127 13L152 221L39 219L44 272L158 274L181 471L55
470L59 525L188 527L211 723ZM250 472L226 275L355 278L378 473L250 472Z" />
<glyph unicode="$" glyph-name="dollar" d="M282 754H357Q358 752 358 750Q358 746 354 741T350 730V686Q457 675 522 597L472 534Q467 535 466 542Q465 551 465 552Q464 554 460 559Q421 607 350 617V394Q402 377 427 366Q543 316 543 210Q543 142 493 87T350
19V-54H282V17Q157 24 79 109L129 178Q135 175 134 167Q134 159 138 154Q195 93 282 83V338Q245 350 218 363Q173 385 146 414T110 468T102 517Q102 580 152 627T282 685V754ZM350 317V86Q404 96 435 130T467 205Q467 262 410 294Q391 304 350 317ZM282 418V619Q231
613 205 587T178 527Q178 473 241 437Q258 428 282 418Z" />
<glyph unicode="%" glyph-name="percent" d="M463 722H541L137 0H63L463 722ZM172 735Q226 735 264 692T302 582Q302 518 264 475T173 432Q119 432 81 475T43 583Q43 649 81 692T172 735ZM170 674Q148 674 131 654T113 587Q113 535 131 515T172 494T211 514T229
579Q229 633 211 653T170 674ZM569 139Q569 74 531 31T440 -12T348 31T310 138Q310 203 348 246T439 289T531 246T569 139ZM462 229T439 229T398 208T379 138Q379 91 397 69T440 47Q463 47 481 68T500 136Q500 186 481 207Z" />
<glyph unicode="&amp;" glyph-name="ampersand" d="M275 729Q341 729 385 685T430 575Q430 518 396 466T305 382L435 201Q471 242 487 294Q489 299 489 303Q489 305 488 310T487 317Q487 324 492 329L567 277Q528 206 479 142L560 37L492 -14L428 88Q392 43 341
16T233 -12Q155 -12 104 40T52 169Q52 237 91 299T198 397Q116 496 116 577Q116 642 162 685T275 729ZM196 576Q196 520 266 432Q306 454 330 491T354 569Q354 609 331 634T274 660Q242 660 219 637T196 576ZM238 343Q192 313 166 268T139 177Q139 128 169 96T245
63Q272 63 299 75T345 103T374 130L386 143L238 343Z" />
<glyph unicode="&apos;" glyph-name="quotesingle" d="M372 706V596L374 492H276Q274 519 274 542T274 592Q279 596 276 619T272 648V706Q272 737 290 754T328 772Q372 772 372 706Z" />
<glyph unicode="(" glyph-name="parenleft" d="M464 772L499 701Q495 699 490 699Q487 699 483 699T477 700Q473 700 467 696Q366 637 309 533T251 303Q251 167 318 48T503 -139L465 -200Q328 -128 250 6T171 299T250 585T464 772Z" />
<glyph unicode=")" glyph-name="parenright" d="M100 699L122 771Q263 706 347 576T432 290Q432 134 346 1T116 -202L94 -132Q212 -70 281 43T350 287Q350 416 283 527T100 699Z" />
<glyph unicode="*" glyph-name="asterisk" d="M257 601H351Q350 595 348 587T344 570L326 396L510 480L541 409L342 349L488 174L425 124L300 316L170 123L107 174L258 348L58 409L88 484L275 396L257 601Z" />
<glyph unicode="+" glyph-name="plus" d="M267 606H340V408H538V337H340V120H267V337H62V408H267V606Z" />
<glyph unicode="," glyph-name="comma" d="M364 23Q364 -70 241 -195L201 -160Q234 -130 259 -88Q276 -60 276 -40Q276 -16 249 2Q217 23 217 53Q217 80 236 99T284 119Q316 119 340 93T364 23Z" />
<glyph unicode="-" glyph-name="hyphen" d="M92 403H509V326H92V403Z" />
<glyph unicode="." glyph-name="period" d="M355 81T355 54T335 7T287 -13T238 6T218 53T238 100T286 120T335 101Z" />
<glyph unicode="/" glyph-name="slash" d="M84 -15L447 770L516 735L152 -49L84 -15Z" />
<glyph unicode="0" glyph-name="zero" d="M301 727Q344 727 384 702T458 631T511 512T531 349T511 189T456 75T383 10T303 -13Q259 -13 218 12T143 83T89 200T68 355Q68 439 88 510T142 628T216 701T301 727ZM414 562Q392 608 362 632T300 656Q241 656 193 578T144
369Q144 296 160 233L414 562ZM441 485L187 159Q210 112 241 87T305 61Q331 61 356 76T404 123T441 211T456 339Q456 420 441 485Z" />
<glyph unicode="1" glyph-name="one" d="M357 723V-1H276V622L131 579L112 624L301 723H357Z" />
<glyph unicode="2" glyph-name="two" d="M100 610Q132 664 186 695T302 727Q390 727 451 668T512 524Q512 487 501 453T467 389T428 340T385 297Q355 268 324 240T254 166T188 71H491Q498 71 503 76Q512 83 519 81V0H95V51Q138 135 187 197T305 320Q330 342 339
351T371 384T403 425T422 467T431 518Q431 576 391 615T293 655Q250 655 218 635T169 590Q166 585 165 577T159 563L100 610Z" />
<glyph unicode="3" glyph-name="three" d="M486 541Q486 489 457 446T378 385Q434 364 468 314T502 199Q502 111 441 50T280 -12Q225 -12 176 9T90 70L151 143Q156 138 158 127T166 110Q172 103 182 95T221 74T279 61Q341 61 382 104T424 208Q424 272 377 309T255
346Q236 346 218 343V408Q291 408 332 426Q368 442 388 473T409 540Q409 587 374 619T284 652Q211 652 159 597L114 647Q148 684 193 704T287 724Q372 724 429 670T486 541Z" />
<glyph unicode="4" glyph-name="four" d="M373 723H441V271H534V199H441V0H357V200H66V260L373 723ZM358 594L146 271H358V594Z" />
<glyph unicode="5" glyph-name="five" d="M133 722H499V649H201L190 441Q246 469 308 469Q402 469 464 405T526 228Q526 115 461 51T298 -13Q233 -13 177 16T84 98L156 152Q162 148 162 138T165 125Q173 109 210 84T297 58Q358 58 400 104T443 230Q443 312 400
357T295 402Q258 402 222 384T160 334L108 355L133 722Z" />
<glyph unicode="6" glyph-name="six" d="M343 730Q434 730 501 664L445 602Q439 606 435 615T428 628Q424 632 415 638T386 651T343 658Q324 658 305 653T261 631T216 585T183 503T168 379Q192 420 233 443T321 466Q402 466 460 402T519 229T459 55T313 -12Q264
-12 219 12T142 84Q88 166 88 329Q88 463 119 551Q150 640 211 685T343 730ZM313 395Q273 395 235 369T172 298Q165 198 207 129T316 60Q367 60 403 103T440 225Q440 311 402 353T313 395Z" />
<glyph unicode="7" glyph-name="seven" d="M101 722H510V677Q437 509 373 338Q311 171 258 0H167Q231 195 305 386Q355 516 410 645H101V722Z" />
<glyph unicode="8" glyph-name="eight" d="M309 731Q388 731 442 682T497 560Q497 508 466 461T382 386Q444 357 482 303T521 186Q521 103 458 46T299 -12Q206 -12 143 44T80 182Q80 243 119 298T224 384Q174 409 144 455T114 553Q114 627 170 679T309 731ZM285
351Q232 329 198 286T163 192Q163 138 203 100T303 61Q360 61 399 98T439 187T397 284T285 351ZM303 663Q256 663 224 633T192 560Q192 527 212 498T255 451T299 425L319 415Q363 438 390 476T418 555Q418 600 385 631T303 663Z" />
<glyph unicode="9" glyph-name="nine" d="M262 -12Q169 -12 102 54L158 116Q165 112 168 102T177 88Q180 85 188 81T218 69T264 62Q307 62 346 86T407 161Q432 222 436 340Q411 303 372 283T287 262Q206 262 148 325T89 490Q89 593 149 661T296 729Q357 729 411
690T492 572Q517 499 517 370Q517 238 486 156Q454 73 393 31T262 -12ZM295 333Q334 333 371 357T432 421Q441 526 400 591T294 657Q242 657 205 613T168 493Q168 417 205 375T295 333Z" />
<glyph unicode=":" glyph-name="colon" d="M355 451T355 424T335 377T287 357T238 376T218 423T238 470T286 490T335 471ZM355 81T355 54T335 7T287 -13T238 6T218 53T238 100T286 120T335 101Z" />
<glyph unicode=";" glyph-name="semicolon" d="M364 23Q364 -70 241 -195L201 -160Q234 -130 259 -88Q276 -60 276 -40Q276 -16 249 2Q217 23 217 53Q217 80 236 99T284 119Q316 119 340 93T364 23ZM355 451T355 424T335 377T287 357T238 376T218 423T238 470T286
490T335 471Z" />
<glyph unicode="&lt;" glyph-name="less" d="M541 575V657L50 399V343L544 55V142L139 370L541 575Z" />
<glyph unicode="=" glyph-name="equal" d="M62 508H538V437H62V508ZM62 268H538V197H62V268Z" />
<glyph unicode="&gt;" glyph-name="greater" d="M59 575V657L550 399V343L56 55V142L461 370L59 575Z" />
<glyph unicode="?" glyph-name="question" d="M381 79T381 52T361 5T313 -15T264 4T244 51T264 98T312 118T361 99ZM84 650Q121 707 181 739T307 771Q402 771 457 712T513 567Q513 541 507 518T493 478T470 445T446 420T420 398T398 380Q366 351 357 325T348 262V214H272V262Q272
309 281 341T326 411Q331 416 349 434T376 463T397 493T416 531T422 573Q422 624 387 659T300 695Q256 695 213 668T143 595L84 650Z" />
<glyph unicode="@" glyph-name="at" d="M514 35Q440 -13 352 -13Q307 -13 265 0T182 42T112 114T64 221T46 364Q46 440 63 503T107 607T171 678T246 720T324 733Q389 733 442 699T523 605Q535 579 541 548T548 495T549 438V203H479V247Q434 193 363 193Q301 193
257 237T213 344Q213 392 241 434T323 497Q369 515 459 515H476Q476 580 431 625T321 671Q282 671 246 653T180 598T131 502T113 367Q113 286 135 224T194 125T272 71T358 53Q427 53 483 91L514 35ZM479 457H460Q432 457 416 456T374 449T331 430Q285 398 285 347Q285
310 311 284T377 257Q403 257 426 270T462 310Q470 326 474 350T478 387T479 435V457Z" />
<glyph unicode="A" glyph-name="A" d="M27 -1L282 735H291L570 0H486L406 211H177L107 -1H27ZM388 274L286 549L193 274H388Z" />
<glyph unicode="B" glyph-name="B" d="M66 722H271Q360 722 406 702Q456 680 483 638T511 546Q511 494 482 451T404 387Q465 367 502 315T539 200Q539 143 508 95T419 22Q367 0 270 0H66V722ZM146 653V423H259Q325 423 359 438Q392 452 410 479T429 538Q429 570
410 598T356 640Q324 653 260 653H146ZM146 355V71H284Q345 71 377 86Q414 102 434 135T454 208Q454 248 433 283T372 337Q335 355 264 355H146Z" />
<glyph unicode="C" glyph-name="C" d="M332 728Q404 728 464 689T553 585L476 547Q471 551 471 558Q471 560 471 563T471 567Q471 572 467 579Q445 618 408 640T329 663Q248 663 192 583T136 364Q136 223 194 141T336 58Q379 58 418 81T483 146L543 107Q509 52
453 20T331 -12Q293 -12 257 -1T184 37T119 106T74 211T57 357Q57 440 75 506T121 612T186 680T259 717T332 728Z" />
<glyph unicode="D" glyph-name="D" d="M72 722H241Q296 722 334 715T409 683Q476 640 509 556T543 362Q543 243 502 156T383 28Q348 10 313 5T227 -1H72V722ZM149 653V63H223Q266 63 296 69T358 96Q461 165 461 351Q461 539 372 613Q342 638 311 645T236 653H149Z" />
<glyph unicode="E" glyph-name="E" d="M78 723H521V651H155V414H457V340H155V72H518V0H78V723Z" />
<glyph unicode="F" glyph-name="F" d="M100 723H516V652H182V425H452V355H182V0H100V723Z" />
<glyph unicode="G" glyph-name="G" d="M331 729Q398 729 454 697T541 608L484 550Q477 555 469 573Q451 610 415 634T331 658Q283 658 239 632T168 555Q132 486 132 369Q132 202 201 123Q256 60 338 60Q406 60 468 104V276H337V346H543V64Q441 -11 331 -11Q291
-11 254 0T179 38T114 106T69 209T52 352Q52 443 72 513T122 622T192 687T265 720T331 729Z" />
<glyph unicode="H" glyph-name="H" d="M73 722H163Q164 719 164 717Q164 713 161 707T157 694V413H440V722H528Q529 720 529 717Q529 713 525 708T521 696V-1H439V344H157V0H73V722Z" />
<glyph unicode="I" glyph-name="I" d="M112 722H470V654H327V66H477V-1H104V67H246V654H112V722Z" />
<glyph unicode="J" glyph-name="J" d="M209 722H539V654H428V242Q428 208 427 188T420 137T400 83Q375 37 332 12T235 -13Q187 -13 143 8T67 67L121 133Q125 130 125 123T128 112Q132 107 143 97T182 73T237 59Q291 59 322 105Q335 123 341 150T347 192T348 241V654H209V722Z"
/>
<glyph unicode="K" glyph-name="K" d="M59 723H156Q157 716 149 706Q145 701 145 693V389L447 728Q471 722 507 722H537L264 410L556 -1L453 -5L202 361L145 299V0H59V723Z" />
<glyph unicode="L" glyph-name="L" d="M87 722H181Q182 714 177 704Q171 692 171 683V69H519V-1H87V722Z" />
<glyph unicode="M" glyph-name="M" d="M57 722H121L300 369L482 723H543V-1H466V545L310 254H279L133 541V-1H57V722Z" />
<glyph unicode="N" glyph-name="N" d="M68 0V722H147L450 187V723H536Q537 716 533 708Q528 699 528 692V-1H464L146 568V0H68Z" />
<glyph unicode="O" glyph-name="O" d="M556 360Q556 216 513 129Q479 60 423 25T304 -11Q269 -11 235 0T165 39T104 108T61 214T44 362T61 509T104 614T166 682T235 719T304 730Q366 730 422 696T512 594Q556 507 556 360ZM300 654Q270 654 241 640T184 595T141
507T124 373Q124 291 140 229T184 134T242 84T305 68Q345 68 382 92T443 166Q475 234 475 349Q475 470 447 540Q423 598 383 626T300 654Z" />
<glyph unicode="P" glyph-name="P" d="M78 722H298Q327 722 345 721T388 714T435 697Q484 672 511 624T538 519T512 415T436 342Q390 319 304 319H162V0H78V722ZM162 646L161 390H307Q362 390 391 405Q422 420 438 450T455 515Q455 551 437 582T387 630Q356 646
298 646H162Z" />
<glyph unicode="Q" glyph-name="Q" d="M300 656Q269 656 240 641T183 595T140 507T123 374Q123 292 139 230T182 133T241 81T305 64Q326 64 347 70T392 95T435 144T465 227T478 348Q478 468 449 541Q424 600 384 628T300 656ZM556 358Q556 214 513 128Q484 70
440 36T343 -8Q344 -25 347 -38T358 -66T384 -87T428 -95Q442 -95 474 -93T522 -89L520 -168Q462 -170 416 -168T341 -150Q270 -115 272 -8Q239 -3 208 11T147 55T94 125T58 227T44 362Q44 444 61 509T104 614T166 682T235 719T304 730Q366 730 422 695T513 592Q556
506 556 358Z" />
<glyph unicode="R" glyph-name="R" d="M75 722H288Q317 722 335 721T379 715T426 698Q475 673 501 627T528 524Q528 452 488 396T381 322L548 0H457L297 319H157V0H75V722ZM157 646V390H297Q352 390 381 405Q412 420 428 450T445 515Q445 551 427 582T377 630Q346
646 288 646H157Z" />
<glyph unicode="S" glyph-name="S" d="M514 636L463 567Q457 569 457 576T454 588Q432 620 394 639T307 659Q248 659 213 628T177 553Q177 489 251 446Q275 431 322 413T412 374T481 327Q537 275 537 197Q537 160 524 125T484 59T408 8T297 -12Q155 -12 70 81L118
164Q123 161 123 153Q123 145 127 141Q153 107 198 84T299 61Q373 61 415 100T457 192Q457 254 396 292Q375 305 292 339T171 400Q94 457 94 541Q94 617 156 671T314 726Q373 726 425 703T514 636Z" />
<glyph unicode="T" glyph-name="T" d="M46 723H546V650H333V-1H251V650H46V723Z" />
<glyph unicode="U" glyph-name="U" d="M68 722H159Q160 719 160 716Q160 711 153 700Q148 694 148 685V248Q148 179 165 142Q184 101 221 79T303 56Q347 56 384 78T440 141Q459 179 459 251V722H536V253Q536 204 531 169T507 100Q477 45 422 16T301 -13Q236 -13
181 16T96 99Q78 133 73 167T68 249V722Z" />
<glyph unicode="V" glyph-name="V" d="M39 723H124L309 168L484 722H564L322 -5H285L39 723Z" />
<glyph unicode="W" glyph-name="W" d="M30 722H105L183 234L299 669H324L441 232L507 722H575L461 -5H429L305 472L179 -5H146L30 722Z" />
<glyph unicode="X" glyph-name="X" d="M449 723H530L347 370L552 0H461L300 286L146 0H57L254 368L61 723H148L300 449L449 723Z" />
<glyph unicode="Y" glyph-name="Y" d="M43 723H135L312 372L472 722H558L353 285V0H265V285L43 723Z" />
<glyph unicode="Z" glyph-name="Z" d="M82 722H528L527 665L170 71H511Q519 71 528 75T546 78V-1H68V56L432 649H82V722Z" />
<glyph unicode="[" glyph-name="bracketleft" d="M162 776H493V707H236V-37H494V-103H162V776Z" />
<glyph unicode="\" glyph-name="backslash" d="M516 -15L153 770L84 735L448 -49L516 -15Z" />
<glyph unicode="]" glyph-name="bracketright" d="M438 776H107V707H364V-37H106V-103H438V776Z" />
<glyph unicode="^" glyph-name="asciicircum" d="M118 425L295 722H320L477 426L415 397L303 600L176 397L118 425Z" />
<glyph unicode="_" glyph-name="underscore" d="M50 -22H550V-93H50V-22Z" />
<glyph unicode="`" glyph-name="grave" d="M293 353L230 463L170 563L168 744Q184 721 198 694T225 648Q232 630 243 616T257 595L291 537Q309 506 319 456T330 369Q331 287 293 353Z" />
<glyph unicode="a" glyph-name="a" d="M115 467Q187 541 304 541Q366 541 414 519T488 453Q505 426 509 397T514 328V0H435V58Q348 -13 245 -13Q165 -13 116 31T67 137Q67 184 97 225T188 288Q219 300 263 305T334 311T417 312H434V331Q434 394 417 422Q386 473
308 473Q212 473 156 414L115 467ZM437 248H418Q382 249 329 248T244 240Q197 229 174 202T151 142Q151 105 181 78T262 51Q307 51 343 71T401 113Q418 131 426 151T436 182T437 213V248Z" />
<glyph unicode="b" glyph-name="b" d="M79 771H177Q179 764 171 758Q164 753 164 745V448Q189 492 233 517T327 542Q367 542 404 526T472 477T521 391T540 271Q540 202 521 147T470 57T399 5T319 -13Q271 -13 230 9T162 70L133 0H79V771ZM298 470Q258 470 226
449T178 393Q164 359 164 282Q164 202 167 177Q172 142 187 117T224 81T262 66T297 62Q315 62 333 66T374 83T413 116T441 171T453 254Q453 307 442 347T413 410T374 447T334 466T298 470Z" />
<glyph unicode="c" glyph-name="c" d="M539 442L480 373Q475 377 475 387T473 400Q470 404 462 413T438 436T394 459T336 469Q261 469 211 416T161 273Q161 181 213 122T343 63Q427 63 483 127L531 71Q493 30 443 9T336 -13Q223 -13 149 66T75 264T150 462T341
540Q404 540 455 514T539 442Z" />
<glyph unicode="d" glyph-name="d" d="M440 452V771H529Q529 764 523 754Q518 746 518 738L519 49Q519 19 524 0H441Q436 15 436 39V85Q411 40 367 14T273 -12Q233 -12 197 5T130 55T81 143T62 269Q62 341 82 396T135 482T207 528T285 543Q339 543 380 519T440
452ZM289 475Q264 475 240 466T194 436T157 376T143 283Q143 221 157 176T195 107T243 73T292 62Q335 62 371 89T422 162Q433 197 433 259Q433 338 424 372Q410 425 371 450T289 475Z" />
<glyph unicode="e" glyph-name="e" d="M310 542Q344 542 376 533T437 502T489 443T519 354Q528 305 523 253H147Q150 197 168 156T213 95T269 65T327 55Q411 55 464 115L510 70Q442 -12 320 -12Q209 -12 138 59T66 259Q66 329 86 384T140 473T218 524T310 542ZM150
317H441Q449 382 409 430T304 478Q281 478 258 470T212 445T173 394T150 317Z" />
<glyph unicode="f" glyph-name="f" d="M408 777Q510 777 570 705L532 628Q529 628 526 630T523 638Q522 648 519 651Q502 678 471 695T404 712Q370 712 342 697T297 653Q288 637 284 615T279 580T278 539V498H451V432H278V0H198V432H83V498H198V550Q198 593 203
624T227 685Q254 729 302 753T408 777Z" />
<glyph unicode="g" glyph-name="g" d="M156 412T156 364T190 282T272 248T355 282T389 364T355 446T273 481T190 447ZM278 547Q352 547 403 496Q467 550 550 543L560 475Q545 478 529 478Q480 478 437 452Q464 411 464 362Q464 289 408 235T273 181Q239 181 206
193Q168 162 168 134Q168 108 200 99Q225 92 276 92Q315 95 367 94T455 77Q496 61 516 30T537 -38Q537 -66 524 -93T484 -144T407 -184T294 -199Q227 -199 179 -188T104 -158T66 -118T54 -74Q54 -12 141 43Q98 66 98 114Q98 165 158 216Q122 240 101 278T80 359Q80
436 139 491T278 547ZM197 28Q131 -8 131 -54Q131 -98 183 -119Q227 -136 292 -136Q368 -136 411 -113Q461 -86 461 -43Q461 -22 446 -4T398 19Q380 22 337 22T286 22Q230 24 197 28Z" />
<glyph unicode="h" glyph-name="h" d="M91 0V770H187Q188 768 188 767Q188 762 180 754Q176 750 176 743V436Q207 483 253 512T352 542Q398 542 435 518T493 449Q512 405 512 321V0H430V319Q430 344 429 359T421 397T401 436Q373 470 329 470Q292 470 257 446T202
396Q176 361 176 305V0H91Z" />
<glyph unicode="i" glyph-name="i" d="M133 530H345V67H469V0H126V67H261V462H133V530ZM280 760T305 760T347 743T365 701T348 659T305 641T263 658T245 700T262 742Z" />
<glyph unicode="j" glyph-name="j" d="M156 530H437V37Q437 -50 413 -96Q387 -147 337 -174T228 -202Q126 -202 66 -128L120 -56Q124 -59 126 -67T130 -77Q135 -84 144 -94T179 -117T233 -130Q267 -130 296 -113T339 -63Q353 -34 353 21V461H156V530ZM371 760T396
760T438 743T456 701T439 659T396 641T354 658T336 700T353 742Z" />
<glyph unicode="k" glyph-name="k" d="M87 770H182Q183 763 175 753Q171 748 171 740V286L436 532Q460 526 498 526H528L305 316L565 -1Q561 -1 557 -1L457 -5L241 265L171 200V-1H87V770Z" />
<glyph unicode="l" glyph-name="l" d="M108 770H342V67H498V0H101V67H258V703H108V770Z" />
<glyph unicode="m" glyph-name="m" d="M54 0V529H131L130 477Q149 506 178 524T238 542Q273 542 299 520T332 465Q347 500 379 521T451 542Q506 542 533 500Q540 490 544 478T551 454T554 429T555 403T555 376V-1H476V375Q477 391 476 414T469 452Q456 481 427
481Q394 481 365 433Q343 396 343 350V0H265V368Q265 421 260 438Q253 458 240 468T211 478Q173 478 147 429Q130 398 130 353V0H54Z" />
<glyph unicode="n" glyph-name="n" d="M89 0V529H174V436Q205 483 251 512T350 542Q396 542 433 518T491 449Q510 405 510 321V0H428V319Q428 344 427 359T419 397T399 436Q371 470 327 470Q290 470 255 446T200 396Q174 361 174 305V0H89Z" />
<glyph unicode="o" glyph-name="o" d="M543 262Q543 136 474 61T305 -14Q203 -14 130 64T57 261Q57 381 130 461T307 541Q353 541 395 523T470 471T523 383T543 262ZM302 470Q237 470 191 416T145 268Q145 173 192 116T306 58Q368 58 413 111T459 259Q459 361
412 415T302 470Z" />
<glyph unicode="p" glyph-name="p" d="M79 529H164V448Q191 491 235 516T331 541Q372 541 409 525T477 477T527 392T546 271Q546 201 527 145T475 55T405 4T324 -14Q276 -14 234 8T165 70V-193H80L79 529ZM301 470Q260 470 227 449T178 393Q164 360 164 289Q164
240 164 220T168 175T179 133Q194 98 227 79T300 60Q318 60 336 64T377 80T417 113T447 169T459 253Q459 308 447 349T418 413T377 448T336 466T301 470Z" />
<glyph unicode="q" glyph-name="q" d="M443 452V529H522V-193H439V85Q414 41 371 15T277 -12Q186 -12 123 66T59 270Q59 335 78 388T130 474T203 525T289 543Q386 543 434 468Q443 454 443 452ZM292 475Q232 475 188 427T143 282Q143 176 188 119T295 62Q338 62
374 89T425 162Q436 196 436 258Q436 349 423 385Q407 430 370 452T292 475Z" />
<glyph unicode="r" glyph-name="r" d="M125 529H212L209 427Q234 482 286 512T400 542Q485 542 541 484L502 404Q497 409 491 418T482 431Q451 470 395 470Q303 470 246 381Q229 354 221 330T211 292T209 257V-1H125V529Z" />
<glyph unicode="s" glyph-name="s" d="M511 459L462 386Q456 387 456 395T453 406Q433 433 395 456T307 479Q261 479 228 459T195 407Q195 368 247 342Q268 333 338 313T442 273Q520 229 520 153Q520 88 461 38T299 -12Q166 -12 76 72L124 155Q130 152 130 144T132
132Q145 118 162 104T218 74T298 58Q356 58 395 81T434 142Q434 184 381 209Q359 220 306 236T239 258Q223 264 214 267T183 283T147 309T122 345T110 394Q110 455 167 498T313 542Q436 542 511 459Z" />
<glyph unicode="t" glyph-name="t" d="M228 671L319 686Q320 679 320 676T316 666T312 655Q309 636 304 583L299 530H472V461H298Q288 358 288 254Q288 178 291 152Q297 108 322 88T380 67Q434 67 499 115L525 49Q444 -10 356 -10Q275 -10 235 46Q221 66 214 93T205
140T204 190Q204 326 215 461H91L92 529H218L228 671Z" />
<glyph unicode="u" glyph-name="u" d="M83 529H167V234Q167 157 186 120Q201 89 228 72T287 55Q324 55 357 77T409 133Q430 172 430 238V529H514V48Q514 19 520 0H432Q429 16 430 41L431 81Q405 37 361 12T268 -13Q215 -13 171 15T103 95Q82 143 82 234L83 529Z" />
<glyph unicode="v" glyph-name="v" d="M56 530H156Q157 525 155 518T152 507Q152 504 154 500L307 113L392 310Q447 438 464 530H539Q518 434 460 298L331 -4H266L56 530Z" />
<glyph unicode="w" glyph-name="w" d="M28 530H113Q116 522 111 507Q108 497 110 486L187 104L278 480H329L441 105Q493 446 490 529H567Q533 262 479 -1H401L303 342L210 -1H135L28 530Z" />
<glyph unicode="x" glyph-name="x" d="M430 530H515L343 272L538 0H443L297 206L159 0H65L251 269L68 530H159L298 334L430 530Z" />
<glyph unicode="y" glyph-name="y" d="M63 529H167Q167 523 165 516T162 504T164 495L319 105L420 389Q450 472 460 530H547Q528 468 494 377L329 -60Q308 -117 283 -144Q232 -201 151 -201Q82 -201 36 -157L79 -82Q83 -85 85 -92T88 -101Q91 -105 97 -111T118
-125T150 -133Q192 -133 224 -98Q243 -79 261 -37L278 2L63 529Z" />
<glyph unicode="z" glyph-name="z" d="M92 530H504V473L181 71H496Q504 71 513 75T531 78V-1H68V56L396 457H92V530Z" />
<glyph unicode="{" glyph-name="braceleft" d="M71 329H94Q147 329 172 355Q202 387 202 453Q202 467 201 494T199 536Q199 640 256 692Q272 706 291 716T330 730T369 736T409 739T448 738H483V672H443Q417 672 397 672T359 670T326 657Q279 628 279 549Q279 536
281 509T283 468Q283 413 264 375Q238 321 182 297Q223 283 251 241T280 117Q280 98 278 66T276 20Q276 -67 324 -100Q335 -107 348 -111T375 -117T405 -119T439 -119H482V-184H440Q418 -184 399 -184T360 -183T324 -178T291 -168T259 -149Q194 -100 194 19Q194
43 196 80T199 135Q199 211 168 241Q145 264 95 264H71V329Z" />
<glyph unicode="|" glyph-name="bar" d="M261 756H339V-175H261V756Z" />
<glyph unicode="}" glyph-name="braceright" d="M529 329H506Q453 329 428 355Q398 387 398 453Q398 467 399 494T401 536Q401 640 344 692Q328 706 309 716T270 730T231 736T191 739T152 738H117V672H157Q183 672 203 672T241 670T274 657Q321 628 321 549Q321
536 319 509T317 468Q317 413 336 375Q362 321 418 297Q377 283 349 241T320 117Q320 98 322 66T324 20Q324 -67 276 -100Q265 -107 252 -111T225 -117T195 -119T161 -119H118V-184H160Q182 -184 201 -184T240 -183T276 -178T309 -168T341 -149Q406 -100 406 19Q406
43 404 80T401 135Q401 211 432 241Q455 264 505 264H529V329Z" />
<glyph unicode="~" glyph-name="asciitilde" d="M116 396L58 434Q85 480 127 509T217 538Q249 538 278 525T324 495T365 465T409 451Q436 451 458 469T508 526L561 482Q533 439 492 407T401 375Q369 375 342 389T298 421T259 453T212 468Q160 468 116 396Z" />
</font>
</defs>
</svg>
